HIERARCHY
ROOT Hips
{
 OFFSET 0.000000 0.000000 0.000000
 CHANNELS 6 Xposition Yposition Zposition Yrotation Xrotation Zrotation
 JOINT Chest
 {
  OFFSET 0.000000 9.585900 0.002600
  CHANNELS 3 Yrotation Xrotation Zrotation
  JOINT Chest2
  {
   OFFSET 0.000000 9.601200 -0.005300
   CHANNELS 3 Yrotation Xrotation Zrotation
   JOINT Chest3
   {
    OFFSET 0.000000 9.561800 0.000000
    CHANNELS 3 Yrotation Xrotation Zrotation
    JOINT Chest4
    {
     OFFSET 0.000000 9.552100 0.000000
     CHANNELS 3 Yrotation Xrotation Zrotation
     JOINT Neck
     {
      OFFSET 0.000000 14.453000 0.000000
      CHANNELS 3 Yrotation Xrotation Zrotation
      JOINT Head
      {
       OFFSET 0.000000 8.936500 -0.011300
       CHANNELS 3 Yrotation Xrotation Zrotation
       End Site
       {
        OFFSET 0.000000 17.073600 -0.006000
       }
      }
     }
     JOINT RightCollar
     {
      OFFSET -2.921100 9.558500 0.000000
      CHANNELS 3 Yrotation Xrotation Zrotation
      JOINT RightShoulder
      {
       OFFSET -13.519700 0.000000 0.000000
       CHANNELS 3 Yrotation Xrotation Zrotation
       JOINT RightElbow
       {
        OFFSET 0.000000 -29.696600 0.000000
        CHANNELS 3 Yrotation Xrotation Zrotation
        JOINT RightWrist
        {
         OFFSET 0.000000 -24.004700 0.000000
         CHANNELS 3 Yrotation Xrotation Zrotation
         End Site
         {
          OFFSET 0.000000 -17.728500 0.000000
         }
        }
       }
      }
     }
     JOINT LeftCollar
     {
      OFFSET 2.921100 9.558500 0.000000
      CHANNELS 3 Yrotation Xrotation Zrotation
      JOINT LeftShoulder
      {
       OFFSET 13.519700 0.000000 0.000000
       CHANNELS 3 Yrotation Xrotation Zrotation
       JOINT LeftElbow
       {
        OFFSET 0.000000 -29.696600 0.000000
        CHANNELS 3 Yrotation Xrotation Zrotation
        JOINT LeftWrist
        {
         OFFSET 0.000000 -24.004700 0.000000
         CHANNELS 3 Yrotation Xrotation Zrotation
         End Site
         {
          OFFSET 0.000000 -17.728500 0.000000
         }
        }
       }
      }
     }
    }
   }
  }
 }
 JOINT RightHip
 {
  OFFSET -7.771700 -0.012900 -0.001300
  CHANNELS 3 Yrotation Xrotation Zrotation
  JOINT RightKnee
  {
   OFFSET 0.000000 -40.869800 0.001200
   CHANNELS 3 Yrotation Xrotation Zrotation
   JOINT RightAnkle
   {
    OFFSET 0.000000 -39.717900 0.002100
    CHANNELS 3 Yrotation Xrotation Zrotation
    JOINT RightToe
    {
     OFFSET 0.000000 -4.965400 11.033500
     CHANNELS 3 Yrotation Xrotation Zrotation
     End Site
     {
      OFFSET 0.000000 -1.423100 5.872300
     }
    }
   }
  }
 }
 JOINT LeftHip
 {
  OFFSET 7.771700 -0.012900 -0.001300
  CHANNELS 3 Yrotation Xrotation Zrotation
  JOINT LeftKnee
  {
   OFFSET 0.000000 -40.869800 0.001200
   CHANNELS 3 Yrotation Xrotation Zrotation
   JOINT LeftAnkle
   {
    OFFSET 0.000000 -39.717900 0.002100
    CHANNELS 3 Yrotation Xrotation Zrotation
    JOINT LeftToe
    {
     OFFSET 0.000000 -4.965400 11.033500
     CHANNELS 3 Yrotation Xrotation Zrotation
     End Site
     {
      OFFSET 0.000000 -1.423100 5.872300
     }
    }
   }
  }
 }
}
MOTION
Frames: 8
Frame Time: 0.008333
-8.851966 52.885820 15.594609 -179.835564 -15.444282 -2.445514 0.864829 14.653353 0.667697 0.071285 1.310414 0.057424 0.121060 2.210945 0.097761 0.791497 13.142820 0.664514 0.118003 17.309117 3.101499 -0.578568 -7.473278 3.254164 0.668650 -1.240517 2.973131 2.795183 -6.160383 -6.805892 -97.149663 -76.017759 130.693005 -7.039874 -29.010695 -16.883823 -6.196161 -2.014212 1.314634 0.962118 -4.897064 10.568321 76.932339 -60.562017 -117.968664 0.787535 -8.175272 8.750200 1.538096 -62.941937 11.869527 166.992246 86.018625 165.776399 -11.374369 -22.322344 12.120974 0.021342 -0.057655 -0.088510 3.906211 -61.657874 -2.223493 122.241132 77.455451 121.043425 -5.559389 -20.283739 -1.853568 -0.000134 0.075000 0.002882
-8.851261 52.886251 15.592926 -179.834997 -15.443735 -2.447276 0.870528 14.658954 0.673528 0.071270 1.311101 0.057485 0.121151 2.211975 0.097867 0.785641 13.142275 0.666527 0.120252 17.309595 3.100314 -0.574237 -7.454887 3.262488 0.663289 -1.221784 2.972757 2.791319 -6.170713 -6.800716 -97.060058 -76.018263 130.604186 -7.043228 -28.991525 -16.861956 -6.192224 -1.995155 1.319066 0.981129 -4.894369 10.549474 76.975604 -60.569847 -118.009137 0.791718 -8.185993 8.766247 1.530075 -62.939870 11.845628 166.761096 86.010732 165.513751 -11.237017 -22.318002 12.131168 0.029579 -0.068439 -0.087266 3.897483 -61.656729 -2.216119 122.236064 77.453563 121.034646 -5.554901 -20.284306 -1.852991 -0.004383 0.075998 0.000943
-8.850928 52.886677 15.591221 -179.840208 -15.443580 -2.446333 0.872015 14.664518 0.676151 0.071661 1.318954 0.063577 0.120605 2.205513 0.092679 0.787398 13.137405 0.664012 0.124466 17.321461 3.108000 -0.573751 -7.458639 3.257351 0.658841 -1.213004 2.972719 2.775703 -6.148408 -6.774217 -97.080964 -76.035304 130.635677 -7.047555 -28.926471 -16.852422 -6.187269 -1.968964 1.326312 1.004156 -4.890639 10.524582 77.019567 -60.583662 -118.054657 0.793128 -8.185118 8.753419 1.532268 -62.940393 11.846724 166.995839 86.013928 165.752152 -11.344928 -22.297687 12.179583 0.026846 -0.062179 -0.077875 3.886013 -61.656619 -2.203481 122.251437 77.448751 121.043371 -5.550841 -20.287338 -1.854414 -0.003698 0.076057 -0.000357
-8.853042 52.886568 15.591357 -179.831003 -15.431769 -2.434863 0.857871 14.669250 0.672526 0.072682 1.313023 0.060111 0.120284 2.204666 0.092945 0.779637 13.137661 0.666621 0.128396 17.328145 3.104655 -0.571279 -7.463149 3.250758 0.662911 -1.218219 2.961176 2.768906 -6.137835 -6.764318 -97.034196 -76.039295 130.585857 -7.039535 -28.903588 -16.843818 -6.183146 -1.929121 1.341727 1.055132 -4.877227 10.464039 77.123831 -60.614420 -118.146537 0.802352 -8.183070 8.744731 1.544241 -62.957570 11.878254 167.964944 86.033925 166.781961 -11.892326 -22.249443 12.296151 0.005384 -0.032299 -0.058002 3.901246 -61.666397 -2.234036 122.246298 77.453908 121.043418 -5.551632 -20.283897 -1.861763 0.007582 0.076781 0.002807
-8.854396 52.886780 15.590802 -179.828510 -15.425507 -2.425662 0.845613 14.672647 0.665210 0.079182 1.306423 0.057338 0.119027 2.213402 0.099120 0.772004 13.144213 0.667558 0.134754 17.329516 3.100207 -0.566434 -7.456435 3.246456 0.666326 -1.215436 2.951920 2.769216 -6.146510 -6.758688 -97.031183 -76.043866 130.581669 -7.034862 -28.891405 -16.840971 -6.179112 -1.924425 1.338232 1.078042 -4.877032 10.444425 77.157172 -60.622790 -118.145405 0.810574 -8.198834 8.774663 1.556022 -62.967567 11.903039 168.601890 86.046191 167.463484 -12.314497 -22.213136 12.392715 -0.009799 -0.012602 -0.049826 3.899212 -61.671017 -2.242910 122.237970 77.458785 121.033079 -5.551345 -20.279566 -1.867473 0.011903 0.077997 0.003862
-8.853740 52.887139 15.590534 -179.848078 -15.419794 -2.421472 0.862157 14.672143 0.668157 0.071097 1.306802 0.054931 0.119616 2.214439 0.099153 0.778488 13.141889 0.667235 0.146662 17.360460 3.100111 -0.557740 -7.440443 3.242268 0.663920 -1.205022 2.956242 2.771711 -6.151591 -6.756665 -97.021872 -76.047661 130.570480 -7.034029 -28.835930 -16.846317 -6.177440 -1.905739 1.341735 1.086983 -4.893051 10.435145 77.155007 -60.606519 -118.038201 0.809286 -8.197672 8.688263 1.563197 -62.970552 11.885331 168.337978 86.041552 167.163865 -12.162464 -22.222061 12.404889 -0.000126 -0.021711 -0.063657 3.898105 -61.674065 -2.230162 122.221587 77.459158 121.011362 -5.546878 -20.280055 -1.867372 0.008888 0.080287 0.000137
-8.852967 52.887791 15.589650 -179.849462 -15.418795 -2.421301 0.867845 14.676633 0.672297 0.062870 1.306653 0.054999 0.120264 2.215695 0.098854 0.782215 13.145156 0.665915 0.161485 17.370511 3.097555 -0.566184 -7.447662 3.245334 0.660782 -1.192135 2.960729 2.771954 -6.164192 -6.755116 -96.944200 -76.052975 130.481365 -7.039628 -28.780984 -16.838932 -6.175810 -1.898507 1.344912 1.109837 -4.880346 10.410958 77.161407 -60.617571 -118.018514 0.809530 -8.208971 8.730336 1.557735 -62.965228 11.847826 167.713379 86.026037 166.490135 -11.872731 -22.248736 12.391555 0.015180 -0.034781 -0.079687 3.869077 -61.672037 -2.212277 122.197861 77.456167 120.977344 -5.537670 -20.281643 -1.869537 0.002200 0.083946 -0.003625
-8.855608 52.887868 15.590620 -179.842818 -15.407539 -2.401216 0.857960 14.668170 0.651295 0.071744 1.314199 0.058078 0.130491 2.228918 0.102734 0.782211 13.137227 0.663086 0.148695 17.365595 3.097570 -0.566151 -7.444588 3.245099 0.638405 -1.199247 2.964159 2.771133 -6.161507 -6.749780 -96.757639 -76.053628 130.255095 -7.048207 -28.745290 -16.797786 -6.196995 -1.908073 1.348563 1.126122 -4.859416 10.389178 77.166638 -60.631756 -118.003853 0.810056 -8.212084 8.763402 1.585770 -62.972131 11.796095 167.533075 86.022626 166.293453 -11.818627 -22.257137 12.413085 0.018882 -0.032218 -0.084829 3.899653 -61.681311 -2.258000 122.171908 77.454662 120.954511 -5.546625 -20.306192 -1.873635 0.010577 0.111896 -0.001697
